<?xml version="1.0" encoding="UTF-8" standalone="no"?>
<svg xmlns="http://www.w3.org/2000/svg" viewBox="0 0 100 100">
  <path style="fill:#319795;" d="M86.834,90.834H33.166c-2.209,0-4-1.791-4-4V61.5c0-1.013,0.384-1.988,1.076-2.729l28.06-30.066l-8.326-9.499   l-32.81,36.819v30.809c0,2.209-1.791,4-4,4s-4-1.791-4-4V54.502c0-0.981,0.361-1.929,1.014-2.661l36.834-41.336   c0.763-0.856,1.816-1.368,3.002-1.339c1.147,0.005,2.236,0.501,2.992,1.363l36.834,42.02c0.64,0.729,0.992,1.667,0.992,2.637   v31.648C90.834,89.043,89.043,90.834,86.834,90.834z M37.166,82.834h45.668V56.69L63.602,34.75L37.166,63.076V82.834z"/>
</svg>
